PathFileType	4	(X/Y/Z)	C:/Users/opensim2020/Desktop/walking_exp_matlab/subject02_walking05_straight_03.trc	
DataRate	CameraRate	NumFrames	NumMarkers	Units	OrigDataRate	OrigDataStartFrame	OrigNumFrames	
100.00	100.00	8	42	mm	100.00	2077	224	
Frame#	Time	LFHD			RFHD			LBHD			RBHD			C7			T10			CLAV			STRN			RBAK			LSHO			LUPA			LELB			LFRM			LWRA			LWRB			LFIN			RSHO			RUPA			RELB			RFRM			RWRA			RWRB			RFIN			LASI			RASI			LPSI			RPSI			LTHI			LKNE			LTIB			LANK			LHEE			LTOE			RTHI			RKNE			RTIB			RANK			RHEE			RTOE			*39			*40			*41			
		X1	Y1	Z1	X2	Y2	Z2	X3	Y3	Z3	X4	Y4	Z4	X5	Y5	Z5	X6	Y6	Z6	X7	Y7	Z7	X8	Y8	Z8	X9	Y9	Z9	X10	Y10	Z10	X11	Y11	Z11	X12	Y12	Z12	X13	Y13	Z13	X14	Y14	Z14	X15	Y15	Z15	X16	Y16	Z16	X17	Y17	Z17	X18	Y18	Z18	X19	Y19	Z19	X20	Y20	Z20	X21	Y21	Z21	X22	Y22	Z22	X23	Y23	Z23	X24	Y24	Z24	X25	Y25	Z25	X26	Y26	Z26	X27	Y27	Z27	X28	Y28	Z28	X29	Y29	Z29	X30	Y30	Z30	X31	Y31	Z31	X32	Y32	Z32	X33	Y33	Z33	X34	Y34	Z34	X35	Y35	Z35	X36	Y36	Z36	X37	Y37	Z37	X38	Y38	Z38	X39	Y39	Z39	X40	Y40	Z40	X41	Y41	Z41	X42	Y42	Z42	

1	0.000	-927.30640	-1079.23462	1758.37097	-780.79437	-1080.64233	1737.84399	-938.11267	-1193.43884	1662.94006	-797.08423	-1210.44189	1639.66980	-853.93469	-1241.84473	1529.37744	-847.85980	-1297.11121	1256.21069	-886.72626	-1102.70630	1463.62085	-888.68805	-1051.79639	1290.82373	-782.37494	-1288.65808	1356.25232	-1040.63623	-1199.95654	1510.08972	-1130.79993	-1254.24146	1323.59863	-1156.08826	-1277.72827	1189.02515	-1191.70154	-1284.33423	1059.25549	-1196.37256	-1233.11121	928.64270	-1213.14099	-1286.35254	938.22308	-1231.23230	-1272.86841	874.50867	-682.99493	-1133.81848	1494.84460	-596.00378	-1132.95776	1302.17273	-585.23883	-1102.12231	1158.41199	-571.65253	-1058.81335	1046.25146	-597.48431	-999.14111	926.45050	-559.45630	-1041.64001	917.19684	-561.33588	-996.29816	860.20105	-1018.40894	-1093.02319	994.55475	-766.89484	-1073.73010	967.98053	-921.49518	-1292.99731	1044.90564	-805.31818	-1288.26245	1040.92761	-1109.51526	-1117.16809	697.84613	-1097.14563	-1090.44373	500.15237	-1093.36389	-1148.33826	316.71396	-1075.60254	-1147.54004	93.29898	-1016.12164	-1165.79443	66.28037	-1130.49902	-1007.08539	47.97508	-720.64172	-1175.96277	661.72400	-777.30359	-1203.14929	456.15445	-779.80463	-1256.60938	275.24960	-829.13800	-1289.11902	86.34830	-885.50250	-1329.90735	33.78291	-830.41681	-1136.96594	30.48052	-837.21851	-1190.93970	1804.57581	-3360.26978	2845.18066	1033.72400			 
2	0.010	-927.18658	-1073.03406	1758.14075	-781.44849	-1074.84607	1737.86169	-939.04279	-1187.60608	1662.66797	-798.00122	-1204.01917	1639.23267	-854.99512	-1235.21814	1528.92871	-849.19238	-1290.47437	1255.89978	-887.26892	-1096.00439	1463.30713	-888.76801	-1044.96362	1290.43909	-783.50385	-1282.74121	1356.25183	-1041.39673	-1192.47046	1509.62329	-1131.18274	-1247.09338	1323.29065	-1156.75623	-1271.32239	1188.58167	-1192.45081	-1278.54248	1059.12524	-1197.92334	-1227.83606	928.60059	-1214.18811	-1280.66223	937.93469	-1232.44788	-1267.92725	874.30322	-683.76746	-1128.03162	1494.90723	-596.98779	-1126.01135	1301.68518	-586.63031	-1093.67383	1158.19373	-573.58978	-1050.07104	1046.50208	-599.63519	-988.69495	926.83160	-561.85065	-1031.16040	917.51154	-564.04681	-985.40417	861.01184	-1018.97559	-1085.54028	994.60864	-767.39075	-1068.18140	967.62079	-923.13153	-1286.05200	1044.62219	-807.02319	-1282.24805	1040.43335	-1110.40027	-1107.83215	698.07697	-1097.71204	-1078.89868	500.49130	-1096.32666	-1131.84729	315.29907	-1080.89075	-1123.83911	91.54232	-1021.90027	-1141.42053	63.19264	-1133.76404	-981.22998	50.81087	-721.85614	-1172.49768	661.46814	-778.74744	-1201.16833	455.60803	-780.51160	-1255.66064	275.48251	-829.58728	-1288.85193	86.55723	-885.93451	-1329.71960	34.10152	-830.38104	-1136.88062	30.44156	-838.07916	-1185.42627	1804.10327	-3360.09375	2845.08545	1033.88806			 
3	0.020	-928.50653	-1067.32837	1758.24231	-782.40259	-1068.95227	1737.81165	-939.98022	-1181.21326	1662.00757	-799.02405	-1197.76733	1638.40222	-856.09253	-1228.54883	1528.45105	-850.70062	-1283.76990	1255.49170	-887.84985	-1089.08569	1462.77551	-888.88440	-1038.09155	1289.83325	-784.90271	-1275.50110	1355.31628	-1042.44849	-1184.89819	1509.09521	-1132.18579	-1239.86487	1322.86011	-1157.45630	-1264.58142	1188.39441	-1193.33081	-1272.63293	1058.83020	-1199.34778	-1222.33105	928.20770	-1214.98328	-1275.43250	937.47833	-1233.54565	-1263.05786	874.13995	-684.59705	-1121.46741	1494.45667	-598.01312	-1118.44446	1301.30188	-588.04980	-1085.21265	1157.83752	-575.46631	-1040.10278	1046.44507	-602.90973	-978.63831	927.51624	-564.36377	-1020.63519	917.62024	-566.89331	-974.40955	861.50946	-1019.57617	-1078.14441	994.58539	-767.68787	-1062.26819	967.13977	-924.69452	-1279.11243	1044.14771	-808.70770	-1276.20557	1039.81067	-1111.24866	-1098.50842	698.13361	-1098.33313	-1067.39001	500.78683	-1099.24792	-1115.35376	314.01236	-1086.15051	-1100.72058	90.38337	-1027.39075	-1118.55261	60.93024	-1136.46057	-955.77045	53.76040	-723.03058	-1168.64441	661.14276	-779.14624	-1199.27698	455.89294	-781.26654	-1254.63025	275.69290	-830.06848	-1288.73132	86.74369	-886.46967	-1329.19653	34.02713	-830.34845	-1136.78479	30.33198	-839.10034	-1179.85645	1803.62048						 
4	0.030	-929.38788	-1061.36340	1757.73145	-783.31018	-1063.06934	1737.56567	-941.01031	-1174.76465	1661.27686	-799.90601	-1191.46179	1637.86096	-857.29059	-1221.79871	1527.86951	-852.19293	-1277.08252	1255.06750	-888.27185	-1081.96655	1462.20789	-889.05481	-1031.23840	1289.08936	-786.44427	-1268.94165	1355.04395	-1043.57166	-1177.18518	1508.31262	-1133.62073	-1232.44666	1322.25427	-1158.32751	-1257.79895	1187.71887	-1194.21680	-1266.38843	1058.31592	-1200.67188	-1216.63867	927.39478	-1215.80811	-1269.61853	937.06335	-1234.60815	-1257.81628	873.61346	-685.37708	-1115.19275	1493.91748	-599.05292	-1112.07104	1300.78137	-589.45654	-1076.90210	1157.35071	-577.67566	-1030.85522	1046.27112	-605.06464	-968.28796	927.82410	-567.02405	-1010.13727	917.57208	-569.92145	-963.11133	861.81573	-1020.20837	-1070.59192	994.42889	-767.55658	-1055.67944	966.74091	-926.26666	-1272.16052	1043.50330	-810.56287	-1269.77966	1038.80017	-1112.26453	-1089.21790	698.13959	-1099.16052	-1056.29382	501.17337	-1101.97510	-1099.18970	312.98688	-1090.66284	-1077.25806	89.12396	-1032.81824	-1096.12219	59.28707	-1138.72290	-930.93506	56.78555	-724.26239	-1164.97534	660.92365	-780.52228	-1196.57251	455.38669	-781.81146	-1253.69434	276.07755	-830.55981	-1288.52698	87.04441	-886.78473	-1329.10095	34.33957	-830.30554	-1136.87097	30.36841	-840.13867	-1174.22913	1802.83752						 
5	0.040	-929.90295	-1055.08496	1757.55591	-784.18536	-1057.01514	1737.32324	-942.05621	-1168.15479	1660.47742	-801.07574	-1184.94336	1636.84570	-858.69385	-1214.83911	1527.19775	-853.78748	-1270.38135	1254.54773	-889.29419	-1075.03210	1461.36804	-889.36261	-1024.30896	1288.32300	-787.96686	-1262.40125	1354.54089	-1044.94446	-1169.48206	1507.58997	-1134.81152	-1224.77258	1321.56042	-1159.29895	-1250.66443	1187.02246	-1195.12329	-1260.01550	1057.76038	-1201.81067	-1210.84863	926.49890	-1216.78918	-1263.74780	936.10938	-1235.42786	-1252.04114	872.67340	-686.35382	-1108.41675	1493.28125	-600.29999	-1104.67114	1299.91553	-590.90204	-1068.64612	1156.77148	-579.75110	-1021.45801	1045.99036	-608.60144	-958.09180	928.48737	-569.88306	-999.59747	917.46997	-573.12903	-951.96338	862.28748	-1020.85010	-1063.11206	994.10626	-767.63806	-1049.51245	965.95197	-927.79272	-1265.19580	1042.75378	-812.19849	-1263.75891	1038.10303	-1113.13721	-1079.93225	698.11896	-1099.76563	-1045.21338	501.30164	-1104.75806	-1083.12561	311.97235	-1095.16699	-1054.59619	88.54468	-1038.06555	-1073.24219	57.35384	-1140.85144	-906.71503	59.98255	-725.38251	-1160.50842	660.49054	-781.04596	-1194.22766	455.50439	-782.55676	-1252.46631	276.34235	-831.00885	-1288.35828	87.46280	-887.20892	-1328.87756	34.68221	-830.33643	-1136.69995	30.24160	-841.31555	-1168.53357	1802.05469						 
6	0.050	-930.62250	-1048.66089	1757.20410	-785.17841	-1050.93665	1736.90125	-943.08685	-1161.12415	1659.32104	-802.15948	-1178.47717	1635.90308	-860.10284	-1207.87781	1526.53027	-855.40741	-1263.61304	1253.98816	-890.16034	-1067.98950	1460.50232	-889.77069	-1017.41913	1287.40515	-789.57495	-1255.61926	1353.77747	-1045.89380	-1161.52222	1506.28918	-1135.86938	-1216.99072	1320.74744	-1160.32129	-1243.27014	1186.43323	-1196.17798	-1253.40613	1057.02026	-1203.16296	-1204.81384	925.79498	-1217.87939	-1258.04321	935.55304	-1236.52771	-1246.62378	871.93188	-687.42480	-1102.03027	1492.61609	-601.44452	-1096.76831	1299.15674	-592.35364	-1060.41052	1156.10474	-582.22217	-1011.87476	1045.72473	-611.39099	-947.48120	929.01337	-572.93652	-989.04962	917.24402	-576.63586	-941.08057	862.45313	-1021.49670	-1055.56262	993.66846	-768.71619	-1044.85962	964.74585	-929.36261	-1258.25842	1041.96558	-813.88953	-1257.49243	1037.25366	-1114.01501	-1070.57532	697.97632	-1100.42114	-1034.45313	501.20111	-1107.45410	-1067.33228	310.96570	-1099.40051	-1032.34998	88.23132	-1042.74048	-1050.94897	55.72971	-1142.64404	-882.94891	63.22884	-726.60773	-1156.05603	660.00751	-781.89191	-1191.50513	455.27493	-783.22150	-1251.21179	276.61017	-831.44342	-1287.90723	87.69379	-887.72925	-1328.79456	35.19316	-830.31818	-1136.75708	30.30941	-842.60645	-1162.65784	1801.30725						 
7	0.060	-932.00183	-1042.48596	1756.88098	-786.20264	-1044.76147	1736.36902	-944.52240	-1154.62720	1658.51880	-803.41479	-1171.77808	1634.89868	-861.64404	-1200.84814	1525.78589	-857.10596	-1256.83325	1253.32104	-891.09857	-1060.85327	1459.60803	-890.29858	-1010.42902	1286.39099	-791.28961	-1249.12195	1353.38440	-1047.41858	-1153.62134	1505.28674	-1137.20837	-1208.92188	1319.67346	-1161.48596	-1235.75110	1185.51257	-1197.13818	-1246.13635	1055.80334	-1204.28308	-1198.60059	924.49225	-1218.95581	-1251.66553	934.67682	-1237.38904	-1241.00000	871.13983	-688.52222	-1095.44800	1491.77673	-602.75000	-1089.35815	1298.16064	-593.81805	-1052.33496	1155.30774	-584.44562	-1002.90326	1045.15308	-614.47913	-937.17163	929.16071	-575.94916	-978.56213	917.01666	-580.17206	-929.93097	862.86792	-1022.22656	-1047.95129	993.12146	-768.50348	-1038.01709	964.07721	-930.91205	-1251.27515	1041.08191	-815.72754	-1250.81519	1036.15955	-1114.83069	-1061.20447	697.74298	-1101.08020	-1023.88086	500.90811	-1110.05481	-1051.76807	309.97977	-1103.24927	-1010.55371	88.06448	-1047.20630	-1029.22339	54.60837	-1144.20569	-859.84247	66.85455	-727.60986	-1151.83447	659.70282	-782.69049	-1188.49304	455.01999	-783.88879	-1249.75513	276.94189	-831.87469	-1287.53918	87.98872	-888.18726	-1328.43298	35.34831	-830.26117	-1136.65613	30.21750	-843.89630	-1156.71899	1800.17554						 
8	0.070	-933.21783	-1035.95667	1756.26965	-787.25006	-1038.49536	1735.67786	-945.86316	-1147.70825	1657.40015	-804.88263	-1164.83887	1633.70410	-863.28265	-1193.59119	1524.91479	-858.89771	-1250.02441	1252.62427	-892.20667	-1053.59082	1458.61597	-890.92023	-1003.41772	1285.30542	-793.06549	-1242.21704	1352.62939	-1048.97620	-1145.59009	1504.31006	-1139.00940	-1200.80457	1318.61511	-1162.79565	-1228.17236	1184.34009	-1198.40137	-1239.33008	1055.12012	-1205.37683	-1192.25964	923.44446	-1220.06787	-1245.43042	933.91394	-1238.39685	-1234.96704	870.03064	-689.56982	-1088.57227	1490.82141	-604.11664	-1082.17163	1297.21875	-595.38654	-1044.05078	1154.40698	-586.68677	-993.56622	1044.76758	-618.91046	-928.16577	929.45581	-579.29614	-968.12146	916.64563	-583.98718	-919.09851	863.27765	-1022.91339	-1040.33606	992.38684	-768.84515	-1031.44324	962.95898	-932.58130	-1244.21118	1040.08032	-817.53326	-1244.28113	1035.20203	-1115.71570	-1051.82458	697.33429	-1101.79089	-1013.63623	500.61414	-1112.56653	-1036.47546	308.97064	-1106.82886	-989.23956	88.08290	-1051.33936	-1007.97455	53.82234	-1144.86145	-836.74866	71.02851	-728.61829	-1147.68384	659.38861	-783.44220	-1185.27271	454.67331	-784.41748	-1247.90442	277.10422	-832.19281	-1287.02808	88.58266	-888.73218	-1327.88794	35.54528	-830.17633	-1136.35718	30.10866	-845.33191	-1150.63330	1799.14368	-3356.88770	2845.84985	1033.85986			 
